<?xml version="1.0" encoding="UTF-8" standalone="no"?>
<svg viewBox="20 0 200 60" version="1.1" xmlns="http://www.w3.org/2000/svg" xmlns:xlink="http://www.w3.org/1999/xlink">
  <g stroke="none" fill="#ffffff">
    <polygon id="Shape" points="63.6 33.3 32.2 46.9 32.2 37.4 55.3 28.5 32.2 19.6 32.2 10.4 63.6 24.2"></polygon>
    <polygon id="Shape" points="84.2 0 84.2 57.3 75.1 57.3 75.1 0"></polygon>
    <path d="M109.3,28.6 C109.3,37.6 111.4,41.3 116.3,41.3 C121.1,41.3 123.2,37.6 123.2,28.6 C123.2,19.6 121.1,16 116.3,16 C111.4,16 109.3,19.6 109.3,28.6 L109.3,28.6 L109.3,28.6 Z M133.2,28.6 C133.2,41.5 127.1,48.6 116.3,48.6 C105.4,48.6 99.3,41.5 99.3,28.6 C99.3,15.8 105.4,8.6 116.3,8.6 C127.1,8.7 133.2,15.8 133.2,28.6 L133.2,28.6 L133.2,28.6 Z" id="Shape"></path>
  </g>
</svg>
